<mxfile host="app.diagrams.net" modified="2021-09-13T22:49:03.407Z" agent="5.0 (Windows NT 10.0; Win64; x64) AppleWebKit/537.36 (KHTML, like Gecko) Chrome/93.0.4577.63 Safari/537.36" etag="jvzKaNC1iIf6r1YsVrHR" version="15.2.5" type="github">
  <diagram id="TUohO09u5nwzq1JAVTBs" name="Page-1">
    <mxGraphModel dx="806" dy="490" grid="1" gridSize="10" guides="1" tooltips="1" connect="1" arrows="1" fold="1" page="1" pageScale="1" pageWidth="827" pageHeight="1169" math="0" shadow="0">
      <root>
        <mxCell id="0" />
        <mxCell id="1" parent="0" />
        <mxCell id="KWf3APe6HFs7ni6GhWUY-17" style="edgeStyle=orthogonalEdgeStyle;rounded=0;orthogonalLoop=1;jettySize=auto;html=1;" edge="1" parent="1" source="KWf3APe6HFs7ni6GhWUY-4">
          <mxGeometry relative="1" as="geometry">
            <mxPoint x="470" y="163" as="targetPoint" />
          </mxGeometry>
        </mxCell>
        <mxCell id="KWf3APe6HFs7ni6GhWUY-4" value="Word&#xa;" style="swimlane;fontStyle=1;align=center;verticalAlign=top;childLayout=stackLayout;horizontal=1;startSize=26;horizontalStack=0;resizeParent=1;resizeParentMax=0;resizeLast=0;collapsible=1;marginBottom=0;" vertex="1" parent="1">
          <mxGeometry x="210" y="120" width="160" height="86" as="geometry" />
        </mxCell>
        <mxCell id="KWf3APe6HFs7ni6GhWUY-5" value="+Text: string" style="text;strokeColor=none;fillColor=none;align=left;verticalAlign=top;spacingLeft=4;spacingRight=4;overflow=hidden;rotatable=0;points=[[0,0.5],[1,0.5]];portConstraint=eastwest;" vertex="1" parent="KWf3APe6HFs7ni6GhWUY-4">
          <mxGeometry y="26" width="160" height="26" as="geometry" />
        </mxCell>
        <mxCell id="KWf3APe6HFs7ni6GhWUY-6" value="" style="line;strokeWidth=1;fillColor=none;align=left;verticalAlign=middle;spacingTop=-1;spacingLeft=3;spacingRight=3;rotatable=0;labelPosition=right;points=[];portConstraint=eastwest;" vertex="1" parent="KWf3APe6HFs7ni6GhWUY-4">
          <mxGeometry y="52" width="160" height="8" as="geometry" />
        </mxCell>
        <mxCell id="KWf3APe6HFs7ni6GhWUY-7" value="+Word(string)" style="text;strokeColor=none;fillColor=none;align=left;verticalAlign=top;spacingLeft=4;spacingRight=4;overflow=hidden;rotatable=0;points=[[0,0.5],[1,0.5]];portConstraint=eastwest;" vertex="1" parent="KWf3APe6HFs7ni6GhWUY-4">
          <mxGeometry y="60" width="160" height="26" as="geometry" />
        </mxCell>
        <mxCell id="KWf3APe6HFs7ni6GhWUY-12" value="Phrase&#xa;" style="swimlane;fontStyle=1;align=center;verticalAlign=top;childLayout=stackLayout;horizontal=1;startSize=26;horizontalStack=0;resizeParent=1;resizeParentMax=0;resizeLast=0;collapsible=1;marginBottom=0;" vertex="1" parent="1">
          <mxGeometry x="480" y="100" width="160" height="120" as="geometry" />
        </mxCell>
        <mxCell id="KWf3APe6HFs7ni6GhWUY-13" value="+AddWord(Word) : void&#xa;&#xa;+RemoveWord(Word): void&#xa;&#xa;+GetPhrase(): string" style="text;strokeColor=none;fillColor=none;align=left;verticalAlign=top;spacingLeft=4;spacingRight=4;overflow=hidden;rotatable=0;points=[[0,0.5],[1,0.5]];portConstraint=eastwest;" vertex="1" parent="KWf3APe6HFs7ni6GhWUY-12">
          <mxGeometry y="26" width="160" height="94" as="geometry" />
        </mxCell>
        <mxCell id="KWf3APe6HFs7ni6GhWUY-22" style="edgeStyle=orthogonalEdgeStyle;orthogonalLoop=1;jettySize=auto;html=1;dashed=1;rounded=1;" edge="1" parent="1" source="KWf3APe6HFs7ni6GhWUY-18">
          <mxGeometry relative="1" as="geometry">
            <mxPoint x="560" y="230" as="targetPoint" />
          </mxGeometry>
        </mxCell>
        <mxCell id="KWf3APe6HFs7ni6GhWUY-23" style="edgeStyle=orthogonalEdgeStyle;orthogonalLoop=1;jettySize=auto;html=1;dashed=1;rounded=1;" edge="1" parent="1" source="KWf3APe6HFs7ni6GhWUY-18">
          <mxGeometry relative="1" as="geometry">
            <mxPoint x="290" y="220" as="targetPoint" />
          </mxGeometry>
        </mxCell>
        <mxCell id="KWf3APe6HFs7ni6GhWUY-18" value="Program" style="swimlane;fontStyle=1;align=center;verticalAlign=top;childLayout=stackLayout;horizontal=1;startSize=26;horizontalStack=0;resizeParent=1;resizeParentMax=0;resizeLast=0;collapsible=1;marginBottom=0;" vertex="1" parent="1">
          <mxGeometry x="320" y="280" width="160" height="60" as="geometry" />
        </mxCell>
        <mxCell id="KWf3APe6HFs7ni6GhWUY-19" value="+Main(string[]): void" style="text;strokeColor=none;fillColor=none;align=left;verticalAlign=top;spacingLeft=4;spacingRight=4;overflow=hidden;rotatable=0;points=[[0,0.5],[1,0.5]];portConstraint=eastwest;" vertex="1" parent="KWf3APe6HFs7ni6GhWUY-18">
          <mxGeometry y="26" width="160" height="34" as="geometry" />
        </mxCell>
        <mxCell id="KWf3APe6HFs7ni6GhWUY-24" value="words&lt;br&gt;" style="text;html=1;align=center;verticalAlign=middle;resizable=0;points=[];autosize=1;strokeColor=none;fillColor=none;" vertex="1" parent="1">
          <mxGeometry x="395" y="130" width="50" height="20" as="geometry" />
        </mxCell>
      </root>
    </mxGraphModel>
  </diagram>
</mxfile>
